<?xml version="1.0" encoding="UTF-8"?>
<svg xmlns="http://www.w3.org/2000/svg" version="1.1" viewBox="0 0 627.93 627.93">
  <!-- Generator: Adobe Illustrator 28.7.5, SVG Export Plug-In . SVG Version: 1.2.0 Build 176)  -->
  <g>
    <g id="_Ñëîé_1" data-name="Ñëîé_1">
      <g>
        <g>
          <path d="M560.32,126.92c-.06-42.52-16.79-59.2-59.31-59.14,42.52-.06,59.2-16.79,59.14-59.31.06,42.52,16.79,59.2,59.31,59.14-42.52.06-59.2,16.79-59.14,59.31Z" fill="#f7c949"/>
          <path d="M560.32,135.4c-4.68,0-8.47-3.79-8.48-8.46-.06-37.94-12.84-50.75-50.82-50.67h-.01c-4.68,0-8.47-3.79-8.48-8.46h0c0-4.69,3.79-8.48,8.46-8.49,19.36-.03,31.93-3.6,39.55-11.24,7.62-7.64,11.15-20.22,11.13-39.58h0c0-4.69,3.79-8.48,8.46-8.49h.01c4.68,0,8.47,3.79,8.48,8.46.03,19.36,3.6,31.93,11.24,39.55,7.61,7.59,20.12,11.13,39.34,11.13.08,0,.17,0,.25,0,4.68,0,8.47,3.79,8.48,8.46h0c0,4.69-3.79,8.48-8.46,8.49-19.36.03-31.93,3.6-39.55,11.24-7.62,7.64-11.15,20.22-11.13,39.58h0c0,4.69-3.79,8.48-8.46,8.49h-.01ZM542.44,67.69c7.7,4.23,13.6,10.12,17.85,17.8,2.12-3.79,4.66-7.15,7.62-10.12,2.98-2.99,6.35-5.55,10.17-7.69-3.82-2.13-7.2-4.68-10.19-7.66-2.99-2.98-5.55-6.36-7.69-10.17-2.13,3.82-4.68,7.21-7.66,10.19-2.96,2.97-6.31,5.52-10.1,7.65Z" fill="#463334"/>
        </g>
        <g>
          <path d="M67.79,126.92c-.06-42.52-16.79-59.2-59.31-59.14,42.52-.06,59.2-16.79,59.14-59.31.06,42.52,16.79,59.2,59.31,59.14-42.52.06-59.2,16.79-59.14,59.31Z" fill="#f7c949"/>
          <path d="M67.79,135.4c-4.68,0-8.47-3.79-8.48-8.46-.06-37.86-12.83-50.67-50.58-50.67-.09,0-.19,0-.26,0-4.68,0-8.47-3.79-8.48-8.46h0c0-4.69,3.79-8.48,8.46-8.49,19.36-.03,31.93-3.6,39.55-11.24,7.62-7.64,11.15-20.22,11.13-39.58h0c0-4.69,3.79-8.48,8.46-8.49h.01c4.68,0,8.47,3.79,8.48,8.46.03,19.36,3.6,31.93,11.24,39.55,7.61,7.59,20.12,11.13,39.34,11.13.08,0,.17,0,.25,0,4.68,0,8.47,3.79,8.48,8.46h0c0,4.69-3.79,8.48-8.46,8.49-19.36.03-31.93,3.6-39.55,11.24-7.62,7.64-11.15,20.22-11.13,39.58h0c0,4.69-3.79,8.48-8.46,8.49h-.01ZM49.91,67.69c7.7,4.23,13.6,10.12,17.85,17.8,2.12-3.79,4.66-7.15,7.62-10.12,2.98-2.99,6.35-5.55,10.17-7.69-3.82-2.13-7.2-4.68-10.19-7.66-2.99-2.98-5.55-6.36-7.69-10.17-2.13,3.82-4.68,7.21-7.66,10.19-2.96,2.97-6.31,5.52-10.1,7.65Z" fill="#463334"/>
        </g>
        <g>
          <path d="M552.73,294.77c-30.58-38.67-145.25-181.05-215.24-231.8-15.52-11.25-36.43-11.25-51.94.02-70.61,51.31-187.13,196.19-216.23,232.99-4.37,5.52-6.75,12.36-6.75,19.4v289.09h497.85v-287.55c0-8.04-2.71-15.84-7.69-22.15Z" fill="#f7c949"/>
          <path d="M568.91,612.94H54.1v-297.57c0-8.91,3.04-17.66,8.57-24.65,33.25-42.05,147.25-183.25,217.9-234.59,18.5-13.44,43.38-13.46,61.9-.03,70.34,51,183.8,191.54,216.91,233.4h0c6.14,7.76,9.52,17.5,9.52,27.41v296.03ZM71.05,595.99h480.9v-279.07c0-6.11-2.08-12.11-5.87-16.89h0c-32.76-41.43-144.98-180.47-213.57-230.2-12.56-9.11-29.43-9.1-41.98.02-70.67,51.36-191.14,201.76-214.57,231.39-3.17,4.01-4.92,9.03-4.92,14.14v280.61Z" fill="#463334"/>
        </g>
        <g>
          <rect x="122.11" y="111.21" width="381.79" height="410.35" rx="21.3" ry="21.3" fill="#fff"/>
          <path d="M482.6,530.04H143.41c-16.42,0-29.78-13.36-29.78-29.78V132.51c0-16.42,13.36-29.78,29.78-29.78h339.19c16.42,0,29.78,13.36,29.78,29.78v367.75c0,16.42-13.36,29.78-29.78,29.78ZM143.41,119.69c-7.07,0-12.82,5.75-12.82,12.82v367.75c0,7.07,5.75,12.82,12.82,12.82h339.19c7.07,0,12.82-5.75,12.82-12.82V132.51c0-7.07-5.75-12.82-12.82-12.82H143.41Z" fill="#463334"/>
        </g>
        <g>
          <path d="M560.43,602.03H62.58v-281.67c0-6.71,7.35-10.83,13.07-7.33l235.86,144.17,244.1-149.21c2.11-1.29,4.82.23,4.82,2.7v291.33Z" fill="#f35a7b"/>
          <path d="M560.43,610.51H62.58c-4.68,0-8.48-3.8-8.48-8.48v-281.67c0-6.17,3.34-11.87,8.72-14.89,5.38-3.02,11.99-2.89,17.25.32l231.43,141.47,239.68-146.51c3.59-2.19,8.1-2.28,11.77-.22,3.67,2.06,5.95,5.95,5.95,10.16v291.33c0,4.68-3.8,8.48-8.48,8.48ZM71.05,593.56h480.9v-273.39l-236.03,144.28c-2.71,1.66-6.13,1.66-8.84,0l-235.86-144.17-.18.05v273.24Z" fill="#463334"/>
        </g>
        <g>
          <path d="M282.17,380.58l-226.91,223.3c-5.8,5.71-1.76,15.57,6.38,15.57h499.73c8.14,0,12.18-9.87,6.38-15.57l-226.91-223.3c-16.28-16.02-42.39-16.02-58.67,0Z" fill="#f35a7b"/>
          <path d="M545.93,627.93H77.07c-9.74,0-18.42-5.82-22.11-14.84-3.69-9.01-1.59-19.25,5.35-26.08l195.51-192.4h0c30.7-30.21,80.65-30.21,111.35,0l195.51,192.4c6.94,6.83,9.04,17.07,5.35,26.08-3.69,9.01-12.37,14.84-22.11,14.84ZM267.72,406.69l-195.51,192.4c-3.08,3.03-1.97,6.56-1.55,7.57.41,1.01,2.1,4.31,6.42,4.31h468.86c4.32,0,6.01-3.3,6.42-4.31.41-1.01,1.52-4.54-1.55-7.57l-195.51-192.4c-24.14-23.76-63.43-23.76-87.57,0h0Z" fill="#463334"/>
        </g>
        <path d="M179.13,262.29c-3.46,0-6.98-.49-10.45-1.49-16.61-4.77-28.99-20.78-29.44-38.05-.12-4.68,3.57-8.57,8.25-8.69,4.64-.12,8.57,3.57,8.69,8.25.26,9.91,7.64,19.46,17.17,22.2,4.96,1.42,10.15.98,13.9-1.2,3.6-2.09,5.95-6.06,5.73-9.64-.28-4.46-4.01-9.19-11.75-14.9l-1.74-1.28c-7.42-5.43-15.82-11.57-19.58-21.7-4.84-13.04.86-28.62,12.97-35.47,12.11-6.84,28.39-3.69,37.08,7.18,2.92,3.66,2.32,8.99-1.33,11.91-3.66,2.92-8.99,2.32-11.91-1.33-3.44-4.32-10.68-5.72-15.49-3-4.81,2.72-7.34,9.64-5.42,14.81,1.98,5.35,7.67,9.51,13.69,13.92l1.8,1.32c7.6,5.61,17.79,14.55,18.6,27.48.63,10.04-4.91,19.99-14.12,25.35-4.92,2.87-10.69,4.33-16.66,4.33Z" fill="#463334"/>
        <path d="M344.08,262.25c-5.56,0-11.24-2.93-14.52-8.05-2.9-4.52-3.95-10.3-3.12-17.17.39-3.26,1.09-6.31,1.76-9.26.79-3.49,1.54-6.78,1.64-9.84.12-3.91-1.41-7.7-3.42-8.46-1.91-.72-5.26,1.11-7.03,3.84-2.65,4.1-3.36,9.95-4.04,15.61l-2.64,21.82c-.54,4.44-4.44,7.7-8.89,7.44-4.46-.25-7.96-3.92-8-8.39l-.42-49.69c-.04-4.68,3.72-8.51,8.41-8.55,3.59-.06,6.8,2.27,8.01,5.51,5.72-4.2,13.22-6.23,20.58-3.45,10.35,3.91,14.68,15.3,14.37,24.86-.15,4.69-1.11,8.94-2.05,13.06-.6,2.65-1.17,5.15-1.46,7.54-.45,3.74.16,5.35.56,5.98.02.04.07.08.12.12,3.93-1.53,8.48.08,10.52,3.89,2.22,4.12.67,9.26-3.45,11.48-2.15,1.16-4.53,1.71-6.94,1.71Z" fill="#463334"/>
        <path d="M385.42,262.3c-6.59,0-12.66-2.53-16.66-7.15-6.23-7.2-5.55-16.71-5.13-22.39l5.79-80c.34-4.67,4.41-8.17,9.07-7.84,4.67.34,8.18,4.4,7.84,9.07l-5.79,80c-.21,2.86-.59,8.18,1.05,10.07,1,1.15,3.61,1.59,6.07,1.02,3.63-.83,7.41-3.35,11.07-5.79,3.89-2.59,9.16-1.54,11.75,2.36,2.59,3.9,1.54,9.16-2.36,11.75-4.46,2.97-10.02,6.67-16.66,8.2-2.03.47-4.06.7-6.04.7Z" fill="#463334"/>
        <path d="M391.01,211.23c-.14,0-.27,0-.41,0l-35.28-1.69c-4.68-.22-8.28-4.2-8.06-8.87s4.17-8.3,8.87-8.06l35.28,1.69c4.68.22,8.28,4.2,8.06,8.87-.22,4.54-3.96,8.07-8.46,8.07Z" fill="#463334"/>
        <path d="M243.38,262.28c-7.96,0-15.84-3.64-21.25-9.87-5.16-5.93-7.92-14.03-7.58-22.24.56-13.51,9.75-26.45,22.86-32.19,11.5-5.04,25.76-4.62,38.14,1.12,4.25,1.97,6.1,7.01,4.13,11.25-.7,1.51-1.79,2.72-3.1,3.56-.04,6.03-.31,12.42-1.73,18.78l-.69,9.01c-.01.19-.03.37-.04.54.84-.84,1.72-1.92,2.53-2.92,2.95-3.64,8.28-4.2,11.92-1.25,3.64,2.95,4.2,8.28,1.25,11.92-2.15,2.66-5.1,6.3-9.52,8.56-6.41,3.29-13.87,2.4-18.55-2.21-.19-.19-.38-.38-.56-.58-4.92,3.9-10.71,6.23-16.73,6.48-.36.01-.72.02-1.08.02ZM254.77,211.42c-3.73,0-7.34.7-10.56,2.11-7.2,3.15-12.43,10.29-12.72,17.36-.16,3.86,1.12,7.75,3.43,10.41,2.27,2.62,5.69,4.15,8.84,4.03,5.93-.25,10.91-6.05,13.02-11.33.51-1.27.92-2.58,1.27-3.93l1.39-18.29c-1.57-.24-3.13-.36-4.67-.36Z" fill="#463334"/>
        <path d="M440.2,262.28c-7.96,0-15.84-3.64-21.25-9.87-5.16-5.93-7.92-14.03-7.58-22.24.56-13.51,9.75-26.45,22.86-32.19,11.5-5.04,25.76-4.62,38.14,1.12,4.25,1.97,6.1,7.01,4.13,11.25-.7,1.51-1.79,2.72-3.1,3.56-.04,6.03-.31,12.42-1.73,18.78l-.69,9.01c-.01.19-.03.37-.04.54.84-.84,1.72-1.92,2.53-2.92,2.94-3.64,8.28-4.2,11.92-1.26,3.64,2.94,4.2,8.28,1.26,11.92-2.15,2.66-5.1,6.3-9.52,8.57-6.41,3.29-13.87,2.4-18.56-2.21-.19-.19-.38-.38-.56-.58-4.92,3.9-10.71,6.23-16.73,6.48-.36.01-.72.02-1.08.02ZM451.59,211.42c-3.73,0-7.34.7-10.56,2.11-7.2,3.15-12.43,10.29-12.72,17.36-.16,3.86,1.12,7.75,3.43,10.41,2.27,2.62,5.69,4.15,8.84,4.03,5.93-.25,10.91-6.05,13.02-11.33.51-1.27.92-2.58,1.27-3.93l1.39-18.29c-1.57-.24-3.13-.36-4.67-.36Z" fill="#463334"/>
        <path d="M464.71,316H166.09c-4.68,0-8.48-3.8-8.48-8.48s3.8-8.48,8.48-8.48h298.62c4.68,0,8.48,3.8,8.48,8.48s-3.8,8.48-8.48,8.48Z" fill="#463334"/>
        <path d="M403.42,364.97h-188.23c-4.68,0-8.48-3.8-8.48-8.48s3.8-8.48,8.48-8.48h188.23c4.68,0,8.48,3.8,8.48,8.48s-3.8,8.48-8.48,8.48Z" fill="#463334"/>
        <rect x="286.49" y="561.26" width="34.76" height="31.05" rx="3.32" ry="3.32" fill="#463334"/>
        <g>
          <path d="M389.45,558.65l-37.84-43.35h23.74c1.12,0,1.72-1.32.98-2.16l-39.35-45.08h20.23c1.12,0,1.72-1.33.97-2.17l-53.34-59.99c-.52-.58-1.43-.58-1.95,0l-53.34,59.99c-.75.84-.15,2.17.97,2.17h20.23l-39.35,45.08c-.74.84-.14,2.16.98,2.16h23.74l-37.84,43.35c-.74.84-.14,2.16.98,2.16h169.19c1.12,0,1.72-1.32.98-2.16Z" fill="#76af29"/>
          <path d="M388.47,569.29h-169.19c-3.82,0-7.32-2.25-8.9-5.73-1.58-3.48-.98-7.59,1.53-10.48l25.58-29.3h-5.09c-3.83,0-7.32-2.25-8.9-5.73-1.58-3.48-.98-7.59,1.53-10.48l27.09-31.03h-1.58c-3.84,0-7.35-2.27-8.92-5.77-1.58-3.51-.94-7.63,1.61-10.5l53.34-59.99c1.85-2.08,4.52-3.28,7.31-3.28s5.46,1.2,7.31,3.29l53.34,59.98c2.56,2.88,3.19,7,1.61,10.51-1.58,3.51-5.08,5.77-8.92,5.77h-1.58l27.08,31.03c2.52,2.88,3.12,7,1.53,10.48-1.58,3.48-5.08,5.73-8.9,5.73h-5.09l25.58,29.3s0,0,0,0c2.51,2.88,3.12,6.99,1.53,10.48-1.58,3.48-5.08,5.73-8.9,5.73ZM235.06,552.33h137.63l-27.46-31.46c-2.19-2.5-2.71-6.06-1.33-9.08,1.37-3.03,4.39-4.97,7.72-4.97h7.96l-28.97-33.19c-2.19-2.5-2.71-6.06-1.33-9.08,1.37-3.03,4.39-4.97,7.72-4.97h4.25l-37.36-42.02-37.37,42.02h4.25c3.32,0,6.34,1.94,7.72,4.97,1.38,3.03.86,6.58-1.33,9.08l-28.97,33.19h7.96c3.32,0,6.34,1.94,7.72,4.97,1.38,3.03.86,6.58-1.33,9.08l-27.46,31.46Z" fill="#463334"/>
        </g>
      </g>
    </g>
  </g>
</svg>